<?xml version="1.0" standalone="no"?>
<!DOCTYPE svg PUBLIC "-//W3C//DTD SVG 20010904//EN"
 "http://www.w3.org/TR/2001/REC-SVG-20010904/DTD/svg10.dtd">
<svg version="1.0" xmlns="http://www.w3.org/2000/svg"
 width="100%" height="100%" viewBox="10 10 765 874"
 preserveAspectRatio="xMidYMid meet" style="background-color: #ffffff;">

<g transform="translate(0.000000,902.000000) scale(0.100000,-0.100000)"
fill="#000000" stroke="none">
<path d="M0 4510 l0 -4510 3920 0 3920 0 0 4510 0 4510 -3920 0 -3920 0 0
-4510z m4211 3998 c124 -84 285 -193 358 -243 73 -49 244 -167 379 -261 324
-223 684 -468 1072 -730 173 -116 380 -256 460 -310 l145 -99 3 -2406 2 -2405
-142 -79 c-200 -110 -349 -204 -1003 -629 -1060 -688 -1407 -902 -1528 -942
-40 -13 -54 -14 -75 -4 -34 15 -383 240 -697 450 -137 92 -620 413 -1073 713
l-822 546 0 1014 0 1013 107 80 c59 43 166 122 238 174 166 122 1082 765 1600
1124 220 152 499 345 620 429 228 157 349 261 361 310 15 63 -10 84 -368 302
l-218 132 80 67 c152 127 248 184 293 172 97 -24 1152 -731 1228 -823 11 -13
9 -19 -16 -40 -138 -112 -310 -231 -1375 -948 -1200 -808 -1526 -1035 -1579
-1099 -12 -14 -11 -20 10 -43 70 -75 342 -267 939 -664 642 -426 748 -493 769
-483 14 7 753 502 1759 1179 l194 130 -4 345 c-4 364 -9 407 -47 397 -19 -5
-249 -155 -844 -549 -180 -120 -332 -218 -337 -218 -16 0 -296 178 -382 243
-73 55 -97 85 -83 107 23 38 389 298 1498 1068 l208 144 -6 112 c-8 165 -25
609 -25 680 l0 62 -317 213 c-1231 828 -1629 1094 -1639 1094 -6 0 -451 -292
-987 -649 l-977 -649 0 -520 0 -520 -248 -180 c-303 -220 -443 -310 -454 -291
-16 28 -28 355 -38 969 -5 347 -10 675 -10 727 l0 95 268 191 c147 105 391
277 542 381 498 343 733 505 865 597 164 114 307 212 560 386 110 76 258 178
330 228 123 85 131 89 155 77 14 -8 126 -82 251 -167z"/>
<path d="M5625 3109 c-159 -105 -418 -274 -575 -376 -509 -333 -883 -591 -985
-680 -89 -77 -84 -79 -480 197 -271 189 -1420 959 -1498 1005 -42 24 -50 26
-63 13 -26 -26 -34 -130 -34 -463 l0 -330 453 -303 c248 -167 578 -389 732
-493 407 -277 754 -489 799 -489 37 0 375 217 1566 1003 l385 254 3 427 c1
234 -1 426 -5 425 -5 0 -138 -86 -298 -190z"/>
</g>
</svg>
